# Blender 3.6.2
# www.blender.org
mtllib fox.mtl
o fox
v -2.209619 3.587986 1.300809
v -1.780698 2.012554 0.196417
v -2.679368 0.765331 1.390634
v -2.264488 2.266411 2.845728
v -2.209619 3.974932 3.511029
v -2.438262 0.770488 2.482850
v -0.792202 7.608154 -0.124486
v -1.434151 7.068492 0.207448
v -0.812116 8.029912 0.348560
v -1.356217 8.217010 0.732783
v -1.185882 -0.439201 -3.256011
v -1.665087 -1.035164 -2.609764
v -1.328856 0.952429 -1.931856
v 3.691269 -1.003360 -2.711049
v 3.002617 1.160156 -2.333844
v 3.148599 0.691122 0.005308
v -3.598669 -4.976825 -2.316940
v -4.064695 -4.275710 -1.011840
v -3.747087 -4.138466 -3.193835
v -1.886281 -1.648890 -3.393397
v -2.614472 -2.921471 -2.223248
v -2.876351 -2.029390 -1.936154
v -1.988711 -0.571573 -0.050850
v -1.684283 0.565483 -0.057440
v -2.839534 5.444781 0.865443
v -2.000315 5.925276 0.216617
v -1.521970 4.025216 0.476204
v -2.273656 -1.409933 0.385951
v -2.012636 -0.660682 0.585512
v -1.694168 -2.024519 -0.322471
v -2.321218 -2.493266 1.000680
v -2.555735 -1.096049 1.809814
v -3.929744 -3.523450 -1.793181
v -3.477472 6.863057 3.004747
v -2.995687 7.745397 3.539251
v -2.308898 8.256979 1.691194
v -4.637306 5.140927 2.141890
v -5.081412 6.265233 2.579694
v 3.171665 -3.590926 -3.362166
v 3.311773 -1.706195 -3.675477
v -3.183072 6.650745 1.656381
v 0.187124 8.254544 0.878765
v 1.390797 7.157600 2.504912
v 1.511565 5.811671 1.186918
v 2.256948 2.020004 0.525056
v -3.138088 -3.933604 -4.498363
v 0.133689 4.302997 -0.032082
v -1.220121 5.555521 0.043416
v -3.125051 7.479649 1.454098
v 0.272221 3.214220 -0.756837
v 1.245387 3.294733 0.063758
v 1.057717 2.326151 -2.605323
v -3.104708 -4.823537 -4.682882
v -2.039139 -4.254794 -5.640433
v -1.463949 -1.120977 -3.779054
v 4.048989 -2.155459 -0.733199
v 3.932090 -3.678888 -2.981095
v -1.010244 9.755625 0.093700
v -1.064397 9.952321 0.808568
v -0.949073 8.780738 1.771993
v 0.229387 8.337348 2.032296
v -0.174607 7.110324 0.159742
v 1.563282 0.517061 -4.090787
v -0.169594 1.195255 -3.416606
v -0.488347 8.601520 0.066480
v -0.453391 3.393009 -0.385219
v -3.067460 -4.591599 -4.095085
v -1.921808 -0.338489 -0.684490
v -3.243241 -3.045964 0.234954
v -3.311719 -3.858536 0.375205
v -1.149063 -2.153596 -4.340777
v -1.444896 1.805686 -0.454414
v -0.627023 2.579148 -0.914709
v 2.134891 2.558089 1.402525
v 1.722014 3.464067 1.185486
v -2.725069 4.642095 3.133108
v -3.119034 4.932483 1.604378
v 2.531005 -4.686580 -4.133909
v 1.111296 -4.892875 -5.497317
v 2.115980 -2.119930 -4.940034
v -2.580806 -2.947401 -0.449686
v -3.401686 -3.221744 -1.418841
v -1.965646 -3.064874 -3.462735
v -3.797945 -4.878119 -0.662141
v -1.786141 -1.207219 -1.541902
v 3.952146 -3.902230 -0.815430
v -0.882170 -0.608105 -3.576627
v -2.255605 -3.150114 -4.597785
v -3.281492 -3.464857 -3.060460
v 1.931174 3.951008 2.045047
v -4.585876 5.342064 3.394272
v -0.809393 -3.489928 -4.248230
v -1.525408 8.780738 1.428168
v 1.251118 -0.318003 -4.555094
v -1.972809 1.442521 3.513607
v 0.226950 -1.540872 -4.882587
v -0.209277 -4.130874 -5.954316
v 1.905674 -4.173135 1.174741
v 2.447483 -4.884852 1.805229
v 2.763803 -4.822677 0.426636
v -0.656678 -4.510799 3.904851
v -0.610835 -4.376565 2.214524
v -1.647323 -4.268117 2.342169
v -2.035414 -4.160242 0.932344
v -2.068221 -4.104944 1.775861
v -2.088564 -2.740963 1.822134
v -0.865409 9.493458 5.270837
v -0.353396 7.994670 5.243618
v 0.148301 8.632034 4.422020
v 0.903712 5.114997 4.225181
v -0.612698 7.306448 5.217401
v -1.173991 7.372204 4.427607
v -1.542742 5.980718 5.154080
v -0.923429 6.592582 5.034028
v -2.475367 5.438907 4.265580
v -1.627696 -5.317928 3.493694
v -2.393852 -4.566814 2.974662
v 0.587680 -3.642643 -5.261367
v 1.232494 6.144894 3.632943
v 0.903139 4.217758 3.910151
v -1.904904 -2.166203 2.392309
v -0.768851 -3.101692 2.106219
v -0.407548 -1.302917 2.364230
v -0.036648 -0.429316 3.141130
v -0.388781 -4.092623 3.006323
v 0.349009 -4.216114 3.245710
v -1.172701 8.429465 4.544794
v -0.667709 7.970602 4.727880
v 3.126824 -1.161949 0.422911
v 1.548670 -2.318919 1.472293
v 2.932707 -2.638532 1.551372
v -3.059868 -4.562087 0.256730
v 1.300829 -3.035363 2.683988
v 0.968752 -0.600369 3.438825
v 1.196393 -4.845599 1.997485
v 3.899283 -2.560312 0.340251
v 0.371500 3.252185 4.006852
v -0.570866 4.879477 4.756819
v -0.999070 1.174052 4.119455
v -2.940819 6.517514 3.724916
v 2.326573 1.259148 1.557675
v 0.921620 1.102135 4.037223
v 1.700812 0.210341 2.876959
v -3.144821 -5.106189 2.546744
v -1.030731 8.486339 3.153308
v -0.963398 9.787428 4.654818
v -0.438636 -4.889866 -5.843146
v -1.004227 -0.038789 3.121791
v -1.340889 8.275316 3.578934
v -3.477925 -5.321366 -0.538804
v -3.704165 -5.321366 -0.774541
v -3.621603 -5.321366 -1.528813
v -3.021084 -5.321366 2.333944
v -2.762404 -5.321366 2.058247
v -2.956002 -5.321366 2.812122
v -1.646648 -5.321366 3.472948
v -1.864916 -5.321366 1.023741
v -1.793676 -5.321366 -4.991346
v -2.639420 -5.321366 3.094792
v -1.641848 -5.321366 3.489090
v 2.813834 -5.321366 -2.898561
v 2.504019 -5.321366 1.273777
v 2.689927 -5.321366 -3.217319
v 2.916270 -5.321366 -0.301458
v -0.023099 -5.321366 4.083889
v -0.916987 -5.321366 4.255863
v -0.366664 -5.321366 -5.594462
v 2.949320 -5.321366 -2.503525
v 2.924125 -5.321366 -2.847920
v 3.181775 -5.321366 -0.768595
v -3.198587 -5.321366 -3.651568
v -3.412021 -5.321366 -2.711476
v -2.471337 -5.321366 -4.686933
v -2.246142 -5.321366 -4.808039
v -2.151494 -5.321366 0.836673
v -2.751927 -5.321366 1.918839
v 0.538061 -5.321366 2.151176
v 0.173474 -5.321366 3.989413
v 0.281318 -5.321366 -5.450558
v -2.039807 -5.321366 -4.832853
v 1.695211 -5.321366 -4.688842
v 0.839800 -5.321366 1.896291
v 1.231855 -5.321366 -5.166314
v 1.895865 -5.321366 1.872719
v -1.630147 -5.321366 3.463247
v -1.613195 -5.321366 3.395232
v -1.607958 -5.321366 3.413895
v -1.600342 -5.321366 3.440930
v -1.566223 -5.321366 3.562056
v 2.387135 -5.321366 1.797812
vn -0.8512 0.1254 -0.5096
vn -0.9994 0.0344 -0.0060
vn -0.9801 0.1665 0.1077
vn -0.9747 0.0611 0.2149
vn -0.6947 0.5221 -0.4947
vn -0.4334 0.3990 -0.8081
vn -0.8766 0.2814 -0.3904
vn 0.9530 0.3031 0.0013
vn -0.9315 -0.3283 -0.1562
vn -0.8189 -0.0566 -0.5711
vn -0.4730 0.1216 -0.8726
vn -0.5039 -0.2402 -0.8297
vn -0.5224 0.3847 -0.7610
vn -0.9816 -0.0598 -0.1813
vn -0.9894 0.0299 -0.1421
vn -0.8243 0.5444 -0.1556
vn -0.5862 0.0823 -0.8060
vn 0.9504 -0.1185 -0.2876
vn -0.6790 0.2575 -0.6875
vn 0.8427 0.4134 -0.3449
vn 0.8391 0.5411 0.0561
vn -0.8272 0.4668 -0.3128
vn -0.2531 -0.2167 -0.9429
vn -0.7027 0.7014 0.1192
vn 0.2166 0.9127 -0.3464
vn 0.5226 0.8444 -0.1176
vn -0.6983 0.1201 -0.7057
vn -0.8534 0.4882 -0.1826
vn 0.9876 0.1010 -0.1198
vn 0.7648 0.3390 -0.5479
vn 0.8003 0.5434 -0.2535
vn 0.8028 0.5876 -0.1009
vn 0.3664 0.9270 -0.0800
vn 0.5838 0.2916 -0.7577
vn -0.0156 -0.5103 -0.8599
vn -0.0593 0.6235 -0.7795
vn 0.7862 0.3673 -0.4969
vn -0.4656 0.3888 -0.7950
vn -0.3293 0.5186 -0.7891
vn -0.7489 0.4148 -0.5168
vn -0.9949 -0.0549 0.0847
vn -0.9660 0.2586 -0.0069
vn -0.5901 -0.0630 -0.8049
vn 0.7435 -0.1003 -0.6611
vn -0.8871 0.1501 0.4364
vn -0.6966 0.3729 -0.6130
vn -0.6547 0.2728 -0.7049
vn -0.8502 0.1782 -0.4953
vn 0.9141 0.3898 -0.1119
vn -0.8134 -0.5729 0.1008
vn -0.0410 0.1020 -0.9939
vn 0.6967 -0.1100 -0.7089
vn 0.4562 0.1299 -0.8803
vn -0.4081 0.4976 -0.7655
vn -0.3383 0.9408 0.0202
vn -0.6633 0.5705 0.4842
vn -0.6645 0.6185 -0.4194
vn -0.8931 -0.4426 -0.0811
vn -0.9904 -0.1375 -0.0174
vn 0.7382 -0.0906 -0.6684
vn 0.9984 -0.0547 -0.0149
vn 0.5183 -0.4493 0.7277
vn -0.7000 0.6446 -0.3073
vn -0.2283 0.9702 -0.0812
vn -0.9798 -0.1036 -0.1713
vn -0.9763 -0.0163 0.2156
vn 0.5266 0.5165 -0.6752
vn -0.5306 -0.2206 -0.8184
vn -0.6531 0.6984 -0.2928
vn -0.5038 0.8484 -0.1625
vn -0.3719 0.6051 -0.7039
vn -0.2919 0.9330 -0.2106
vn -0.9763 0.0157 -0.2156
vn -0.4240 0.7327 -0.5322
vn -0.6882 0.5742 -0.4434
vn -0.8005 0.1823 -0.5709
vn -0.7395 0.5562 -0.3793
vn 0.5817 0.1189 -0.8047
vn 0.9558 0.0859 -0.2812
vn 0.9127 0.0821 -0.4002
vn -0.9754 0.2098 0.0671
vn -0.3031 -0.2035 -0.9310
vn -0.6071 -0.3708 -0.7028
vn -0.9111 -0.3994 0.1016
vn -0.2921 0.5039 -0.8129
vn -0.1825 -0.9735 -0.1379
vn 0.7256 0.6840 -0.0757
vn 0.6183 0.3554 -0.7010
vn -0.6142 0.7871 0.0572
vn -0.9495 0.2337 -0.2095
vn 0.0083 0.0691 -0.9976
vn -0.9922 -0.0379 -0.1186
vn -0.6006 -0.2062 -0.7725
vn -0.8802 0.0723 -0.4691
vn -0.3999 0.9020 -0.1629
vn -0.9582 -0.2858 0.0140
vn 0.7821 0.4745 -0.4039
vn -0.8486 0.1177 -0.5157
vn -0.9723 -0.1665 -0.1639
vn -0.9803 -0.1870 -0.0630
vn -0.3220 0.3468 -0.8809
vn -0.5322 0.2571 -0.8066
vn -0.1793 0.0809 -0.9805
vn -0.2891 0.5646 -0.7730
vn -0.7458 -0.3811 -0.5463
vn -0.6343 0.6192 0.4628
vn -0.8855 0.0224 -0.4640
vn 0.3842 0.3421 -0.8576
vn -0.3848 0.7761 -0.4996
vn -0.9492 0.0879 -0.3022
vn -0.2616 0.5649 -0.7826
vn -0.3176 -0.7188 -0.6185
vn -0.8140 -0.5722 0.1002
vn 0.4668 0.6355 -0.6150
vn 0.6647 0.5125 0.5436
vn 0.6385 0.2546 -0.7263
vn -0.7917 -0.0920 -0.6040
vn 0.3483 0.3527 -0.8685
vn -0.0919 0.4541 -0.8862
vn -0.7929 -0.5019 -0.3456
vn -0.8513 0.5043 -0.1451
vn -0.6570 0.3500 -0.6677
vn -0.8985 0.3833 0.2139
vn -0.9131 0.0072 0.4076
vn 0.8534 -0.1466 -0.5003
vn -0.4763 0.3606 -0.8019
vn -0.9495 0.2325 -0.2107
vn -0.3444 0.6558 -0.6718
vn -0.7675 0.0742 -0.6368
vn -0.7497 0.1249 -0.6499
vn -0.1565 0.9871 -0.0342
vn -0.4538 0.1886 0.8709
vn -0.6407 0.7088 -0.2950
vn -0.8283 0.5301 -0.1814
vn -0.8231 -0.3584 -0.4405
vn 0.6421 0.3807 -0.6654
vn -0.4692 0.8817 -0.0488
vn -0.9445 0.2914 -0.1517
vn -0.9205 -0.3807 -0.0879
vn -0.5751 0.5614 -0.5951
vn -0.6725 0.4526 -0.5855
vn 0.3405 0.9271 -0.1566
vn 0.1391 0.9421 -0.3050
vn 0.6926 0.6958 0.1903
vn 0.1137 0.9902 0.0817
vn -0.4192 -0.1088 0.9014
vn -0.9992 -0.0136 -0.0380
vn 0.7348 0.2395 0.6345
vn 0.3565 -0.1693 0.9188
vn -0.3451 0.5046 0.7914
vn -0.4484 -0.4725 0.7588
vn 0.2625 0.7153 0.6476
vn 0.0258 0.1816 -0.9830
vn 0.9394 -0.1141 0.3232
vn 0.1125 -0.1632 0.9802
vn -0.3094 -0.0053 0.9509
vn -0.4179 -0.0996 0.9030
vn -0.9600 -0.1736 0.2196
vn -0.0897 0.9373 0.3368
vn -0.5372 0.5209 -0.6634
vn 0.9536 0.3009 0.0028
vn 0.2500 0.0075 0.9682
vn -0.8066 -0.0321 0.5902
vn -0.7859 0.3309 0.5223
vn 0.0923 0.5969 0.7970
vn -0.4403 -0.3001 0.8462
vn 0.6332 -0.1491 0.7595
vn 0.1319 0.1001 0.9862
vn -0.3273 -0.9308 0.1629
vn 0.9846 -0.1088 0.1371
vn 0.7428 -0.3510 0.5701
vn -0.7684 -0.3637 0.5265
vn -0.6676 0.5445 0.5078
vn 0.0135 0.9050 0.4252
vn -0.8182 0.5745 0.0234
vn 0.3763 -0.1991 0.9049
vn -0.2961 -0.5444 0.7848
vn -0.3773 0.2797 0.8828
vn 0.8684 0.0380 0.4944
vn 0.9605 0.1263 0.2481
vn 0.8933 0.0888 0.4406
vn -0.7871 0.0577 0.6142
vn 0.6888 -0.1273 0.7137
vn 0.7220 -0.2814 0.6321
vn -0.1703 0.6585 -0.7330
vn 0.7302 -0.2085 0.6506
vn 0.1286 0.7106 0.6917
vn 0.7424 0.0356 0.6691
vn 0.7927 -0.3796 0.4771
vn -0.6253 0.7700 0.1268
vn -0.2374 0.4318 -0.8702
vn -0.3468 0.5135 0.7849
vn 0.5332 0.6274 -0.5675
vn -0.2937 0.5024 0.8132
vn 0.6228 -0.1537 0.7671
vn -0.7489 0.3519 0.5615
vn 0.2128 -0.2043 -0.9555
vn 0.4395 -0.1534 0.8850
vn -0.5777 -0.0731 0.8130
vn 0.7174 0.3611 0.5958
vn -0.8121 -0.2867 0.5083
vn 0.8461 0.0205 0.5326
vn 0.3493 -0.0792 0.9337
vn 0.9374 -0.2104 0.2774
vn 0.9915 -0.0604 0.1155
vn -0.5829 -0.6021 0.5456
vn -0.8325 -0.2327 0.5027
vn -0.9497 -0.0923 0.2994
vn 0.0154 0.1916 -0.9813
vn -0.8812 0.3339 -0.3348
vn 0.9796 0.1783 -0.0923
vn -0.3256 0.9354 0.1379
vn 0.0087 0.9925 -0.1221
vn -0.3014 0.9233 0.2381
vn 0.7233 0.6879 -0.0603
vn 0.3017 0.9287 0.2158
vn -0.6982 0.0764 0.7118
vn -0.5229 0.5482 0.6527
vn 0.8454 0.4500 0.2876
vn 0.7259 0.6584 0.1987
vn -0.9726 0.1855 0.1398
vn -0.9743 0.0993 0.2023
vn -0.7916 0.1959 0.5789
vn -0.8228 0.2914 0.4879
vn 0.7705 0.1146 0.6270
vn 0.1627 -0.3113 0.9363
vn -0.9845 -0.0181 0.1743
vn -0.2241 0.6451 0.7305
vn -0.7043 0.0510 0.7081
vn 0.3658 -0.3085 0.8780
vn 0.2807 -0.0968 0.9549
vn -0.5485 -0.5298 0.6469
vn -0.2843 -0.0025 0.9587
vn 0.4813 0.3530 -0.8023
vn 0.8359 0.3449 0.4270
vn -0.4679 0.8392 0.2774
vn -0.2092 -0.7774 0.5931
vn -0.3882 0.4838 0.7844
vn 0.8684 -0.0780 0.4898
vn 0.7322 0.1966 0.6521
vn 0.8712 0.3049 -0.3847
vn 0.9893 0.1457 -0.0022
vn 0.9875 0.1511 0.0447
vn -0.7770 -0.2066 0.5947
vn -0.7821 0.0153 0.6230
vn 0.9838 -0.1287 0.1251
vn -0.3068 -0.1431 -0.9410
vn -0.9304 0.0762 0.3585
vn -0.4284 0.5484 0.7181
vn -0.0966 -0.1758 0.9797
vn -0.9453 -0.2671 0.1872
vn 0.0330 -0.0248 0.9991
vn -0.7926 -0.1621 0.5878
vn -0.5777 -0.3396 0.7422
vn -0.1194 0.9724 0.2002
vn 0.7847 -0.3832 0.4873
vn -0.5775 -0.5396 0.6126
vn 0.0437 0.0253 0.9987
vn 0.0175 -0.5131 0.8582
vn 0.8226 0.1158 0.5567
vn 0.3706 -0.4477 0.8138
vn -0.5831 0.0461 -0.8111
vn 0.8619 0.1087 0.4953
vn -0.2503 -0.5819 0.7738
vn -0.3188 -0.3221 0.8914
vn -0.2621 -0.6124 0.7458
vn -0.8693 0.1053 0.4830
vn -0.9030 -0.1205 0.4123
vn -0.1956 0.8934 -0.4044
vn -0.8130 -0.3765 0.4442
vn -0.1265 0.5178 -0.8461
vn 0.0400 0.2271 -0.9731
vn 0.8443 0.4570 0.2798
vn -0.8105 0.4602 -0.3624
vn -0.0000 -1.0000 -0.0000
vn -0.0001 -1.0000 -0.0000
vn 0.6802 -0.3186 -0.6601
vn 0.8952 -0.2784 -0.3480
vn 0.8952 -0.2783 -0.3480
vn 0.3963 -0.3132 -0.8631
vn -0.9779 -0.1798 -0.1070
vn -0.4070 -0.5116 -0.7567
vn -0.3344 -0.5118 -0.7913
vn -0.9403 -0.2649 -0.2135
vn 0.8484 -0.5257 -0.0621
vn 0.8712 -0.4768 -0.1167
vn 0.7100 -0.5153 -0.4800
vn -0.9341 -0.3165 -0.1655
vn -0.5466 -0.0143 0.8373
vn -0.6451 0.4686 0.6036
vn -0.6451 0.4685 0.6036
vn -0.6314 0.3181 0.7072
vn 0.1775 0.3425 0.9226
vn 0.0218 -0.2236 0.9744
vn -0.6855 -0.3119 0.6579
vn -0.7014 -0.1577 -0.6951
vn 0.9648 -0.0737 0.2525
vn -0.8731 0.4830 -0.0656
vn 0.9806 -0.0249 0.1945
vn -0.7062 0.2492 -0.6627
vn -0.3551 0.2587 0.8983
vn -0.3551 0.2586 0.8984
vn 0.1918 -0.4658 -0.8638
vn -0.5410 0.0404 -0.8401
vn 0.9668 -0.1373 0.2156
vn -0.0954 -0.6009 -0.7936
vn 0.7911 -0.4146 0.4497
vn 0.5420 -0.5427 0.6416
vn -0.6834 -0.3142 0.6590
vn -0.8105 -0.5752 0.1103
vn 0.3815 0.4736 0.7938
vn 0.1506 -0.0376 0.9879
vn 0.2590 -0.9628 -0.0770
vn -0.0814 -0.9964 0.0228
vn 0.0629 -0.9923 0.1070
vn 0.3231 -0.9429 0.0805
vn -0.5682 -0.7196 -0.3991
vn 0.2392 -0.5505 -0.7998
vn -0.0812 -0.9964 0.0229
s 0
f 1//1 2//1 3//1
f 1//2 4//2 5//2
f 3//3 4//3 1//3
f 6//4 4//4 3//4
f 7//5 8//5 9//5
f 9//6 8//6 10//6
f 11//7 12//7 13//7
f 14//8 15//8 16//8
f 17//9 18//9 19//9
f 20//10 21//10 22//10
f 23//11 2//11 24//11
f 25//12 26//12 27//12
f 28//13 29//13 30//13
f 31//14 32//14 28//14
f 33//15 19//15 18//15
f 34//16 35//16 36//16
f 37//17 38//17 25//17
f 39//18 40//18 14//18
f 41//19 26//19 25//19
f 42//20 43//20 44//20
f 45//21 16//21 15//21
f 46//22 19//22 33//22
f 47//23 27//23 48//23
f 34//24 36//24 49//24
f 50//25 51//25 52//25
f 52//26 45//26 15//26
f 53//27 46//27 54//27
f 12//28 11//28 55//28
f 14//29 56//29 57//29
f 40//30 15//30 14//30
f 51//31 45//31 52//31
f 42//32 58//32 59//32
f 42//33 60//33 61//33
f 7//34 42//34 62//34
f 62//35 8//35 7//35
f 63//36 64//36 52//36
f 42//37 65//37 58//37
f 25//38 38//38 41//38
f 27//39 47//39 66//39
f 64//40 11//40 13//40
f 53//41 67//41 46//41
f 68//42 23//42 24//42
f 10//43 65//43 9//43
f 65//44 42//44 7//44
f 69//45 18//45 70//45
f 71//46 11//46 64//46
f 72//47 27//47 73//47
f 2//48 27//48 72//48
f 74//49 45//49 75//49
f 1//50 76//50 77//50
f 62//51 48//51 8//51
f 78//52 79//52 80//52
f 39//53 14//53 57//53
f 81//54 28//54 30//54
f 81//55 21//55 82//55
f 30//56 22//56 81//56
f 21//57 83//57 82//57
f 84//58 18//58 17//58
f 30//59 68//59 85//59
f 40//60 78//60 80//60
f 56//61 86//61 57//61
f 71//62 87//62 11//62
f 22//63 12//63 20//63
f 69//64 81//64 82//64
f 28//65 32//65 3//65
f 32//66 6//66 3//66
f 50//67 47//67 51//67
f 58//68 65//68 10//68
f 88//69 46//69 89//69
f 82//70 88//70 89//70
f 49//71 36//71 8//71
f 38//72 34//72 41//72
f 34//73 49//73 41//73
f 73//74 50//74 52//74
f 64//75 13//75 73//75
f 27//76 2//76 1//76
f 72//77 73//77 13//77
f 44//78 47//78 62//78
f 44//79 90//79 75//79
f 75//80 51//80 44//80
f 24//81 72//81 68//81
f 26//82 48//82 27//82
f 1//83 25//83 27//83
f 91//84 38//84 37//84
f 50//85 66//85 47//85
f 37//86 77//86 76//86
f 61//87 43//87 42//87
f 80//88 63//88 40//88
f 12//89 22//89 85//89
f 13//90 68//90 72//90
f 62//91 47//91 48//91
f 68//92 12//92 85//92
f 71//93 92//93 83//93
f 20//94 83//94 21//94
f 33//95 82//95 89//95
f 81//96 22//96 21//96
f 75//97 45//97 51//97
f 3//98 2//98 23//98
f 23//99 68//99 30//99
f 23//100 30//100 29//100
f 28//101 3//101 29//101
f 49//102 8//102 26//102
f 48//103 26//103 8//103
f 27//104 66//104 73//104
f 1//105 77//105 25//105
f 85//106 22//106 30//106
f 24//107 2//107 72//107
f 51//108 47//108 44//108
f 73//109 52//109 64//109
f 93//110 58//110 10//110
f 50//111 73//111 66//111
f 77//112 37//112 25//112
f 5//113 76//113 1//113
f 63//114 52//114 15//114
f 59//115 60//115 42//115
f 42//116 44//116 62//116
f 41//117 49//117 26//117
f 80//118 94//118 63//118
f 55//119 87//119 71//119
f 67//120 17//120 19//120
f 53//121 17//121 67//121
f 36//122 10//122 8//122
f 33//123 18//123 69//123
f 95//124 4//124 6//124
f 40//125 39//125 78//125
f 96//126 71//126 64//126
f 68//127 13//127 12//127
f 87//128 55//128 11//128
f 71//129 83//129 20//129
f 71//130 20//130 55//130
f 82//131 83//131 88//131
f 70//132 28//132 69//132
f 89//133 46//133 33//133
f 20//134 12//134 55//134
f 67//135 19//135 46//135
f 40//136 63//136 15//136
f 69//137 82//137 33//137
f 93//138 59//138 58//138
f 23//139 29//139 3//139
f 36//140 93//140 10//140
f 69//141 28//141 81//141
f 97//142 88//142 83//142
f 97//143 83//143 92//143
f 98//144 99//144 100//144
f 101//145 102//145 103//145
f 104//146 31//146 70//146
f 105//147 106//147 104//147
f 107//148 108//148 109//148
f 110//149 108//149 111//149
f 112//150 113//150 114//150
f 5//151 113//151 115//151
f 116//152 103//152 117//152
f 118//153 96//153 80//153
f 119//154 110//154 120//154
f 121//155 122//155 123//155
f 124//156 125//156 126//156
f 127//157 112//157 128//157
f 104//158 106//158 31//158
f 105//159 117//159 103//159
f 54//160 46//160 88//160
f 56//161 14//161 16//161
f 103//162 122//162 121//162
f 105//163 103//163 106//163
f 31//164 28//164 70//164
f 129//165 130//165 131//165
f 132//166 104//166 70//166
f 126//167 133//167 134//167
f 102//168 122//168 103//168
f 91//169 37//169 76//169
f 135//170 130//170 133//170
f 136//171 131//171 100//171
f 132//172 70//172 18//172
f 103//173 116//173 101//173
f 125//174 101//174 126//174
f 101//175 125//175 102//175
f 137//176 138//176 139//176
f 5//177 138//177 113//177
f 91//178 115//178 140//178
f 141//179 90//179 142//179
f 119//180 90//180 43//180
f 16//181 141//181 129//181
f 140//182 35//182 34//182
f 134//183 133//183 143//183
f 133//184 126//184 135//184
f 88//185 97//185 54//185
f 134//186 143//186 142//186
f 98//187 135//187 99//187
f 130//188 135//188 98//188
f 86//189 136//189 100//189
f 117//190 105//190 144//190
f 94//191 96//191 64//191
f 4//192 95//192 139//192
f 145//193 146//193 109//193
f 113//194 112//194 35//194
f 141//195 130//195 129//195
f 128//196 112//196 111//196
f 97//197 79//197 147//197
f 137//198 120//198 138//198
f 138//199 5//199 139//199
f 129//200 131//200 136//200
f 108//201 107//201 128//201
f 43//202 109//202 108//202
f 110//203 114//203 138//203
f 130//204 141//204 143//204
f 86//205 56//205 136//205
f 148//206 6//206 123//206
f 121//207 32//207 106//207
f 125//208 122//208 102//208
f 80//209 79//209 118//209
f 9//210 65//210 7//210
f 43//211 90//211 44//211
f 35//212 145//212 36//212
f 61//213 145//213 109//213
f 145//214 35//214 149//214
f 61//215 109//215 43//215
f 61//216 60//216 145//216
f 113//217 35//217 140//217
f 140//218 34//218 91//218
f 56//219 129//219 136//219
f 107//220 109//220 146//220
f 149//221 127//221 107//221
f 149//222 107//222 146//222
f 112//223 114//223 111//223
f 108//224 128//224 111//224
f 108//225 110//225 119//225
f 111//226 114//226 110//226
f 127//227 149//227 112//227
f 149//228 35//228 112//228
f 113//229 140//229 115//229
f 138//230 120//230 110//230
f 138//231 114//231 113//231
f 139//232 95//232 148//232
f 134//233 124//233 126//233
f 118//234 79//234 97//234
f 119//235 43//235 108//235
f 36//236 145//236 93//236
f 91//237 76//237 115//237
f 91//238 34//238 38//238
f 120//239 90//239 119//239
f 142//240 90//240 137//240
f 75//241 90//241 74//241
f 90//242 141//242 74//242
f 141//243 45//243 74//243
f 139//244 5//244 4//244
f 18//245 84//245 132//245
f 143//246 133//246 130//246
f 71//247 96//247 92//247
f 123//248 125//248 124//248
f 93//249 60//249 59//249
f 131//250 130//250 98//250
f 106//251 32//251 31//251
f 123//252 6//252 121//252
f 6//253 32//253 121//253
f 107//254 127//254 128//254
f 145//255 60//255 93//255
f 120//256 137//256 90//256
f 6//257 148//257 95//257
f 142//258 137//258 139//258
f 124//259 142//259 139//259
f 16//260 129//260 56//260
f 100//261 131//261 98//261
f 96//262 118//262 92//262
f 141//263 142//263 143//263
f 148//264 123//264 124//264
f 142//265 124//265 134//265
f 148//266 124//266 139//266
f 123//267 122//267 125//267
f 103//268 121//268 106//268
f 92//269 118//269 97//269
f 76//270 5//270 115//270
f 64//271 63//271 94//271
f 94//272 80//272 96//272
f 45//273 141//273 16//273
f 149//274 146//274 145//274
f 150//275 151//275 152//275
f 153//275 154//275 155//275
f 156//275 157//275 158//275
f 156//275 159//275 157//275
f 160//275 159//275 156//275
f 161//275 162//275 163//275
f 164//275 162//275 161//275
f 165//275 166//275 167//275
f 168//275 164//275 169//275
f 170//275 164//275 168//275
f 171//275 150//275 172//275
f 173//275 150//275 171//275
f 174//275 150//275 173//275
f 175//275 150//275 174//275
f 159//275 154//275 176//275
f 159//275 155//275 154//275
f 177//275 178//275 179//275
f 157//275 175//275 180//275
f 181//275 182//275 183//275
f 184//275 182//275 181//275
f 176//275 157//275 159//275
f 161//275 169//275 164//275
f 152//275 172//275 150//275
f 180//275 158//275 157//275
f 158//275 185//275 156//275
f 158//275 186//275 185//275
f 158//276 187//276 186//276
f 158//275 188//275 187//275
f 158//275 189//275 188//275
f 158//275 166//275 189//275
f 158//275 167//275 166//275
f 181//275 190//275 184//275
f 181//275 162//275 190//275
f 181//275 163//275 162//275
f 167//275 178//275 165//275
f 167//275 179//275 178//275
f 179//275 182//275 177//275
f 179//275 183//275 182//275
f 174//275 180//275 175//275
f 181//277 183//277 79//277
f 181//277 79//277 78//277
f 161//278 163//278 78//278
f 161//279 78//279 39//279
f 169//280 161//280 39//280
f 169//280 39//280 57//280
f 152//281 151//281 84//281
f 152//281 84//281 17//281
f 174//282 173//282 53//282
f 174//282 53//282 54//282
f 167//283 158//283 147//283
f 171//284 172//284 17//284
f 171//284 17//284 53//284
f 168//285 169//285 57//285
f 168//285 57//285 86//285
f 170//286 168//286 86//286
f 163//287 181//287 78//287
f 172//288 152//288 17//288
f 175//289 157//289 104//289
f 175//289 104//289 132//289
f 189//290 166//290 101//290
f 189//291 101//291 116//291
f 155//292 159//292 117//292
f 155//292 117//292 144//292
f 166//293 165//293 101//293
f 182//294 184//294 135//294
f 151//295 150//295 132//295
f 151//295 132//295 84//295
f 157//296 176//296 104//296
f 162//297 164//297 100//297
f 176//298 154//298 105//298
f 176//298 105//298 104//298
f 178//299 177//299 126//299
f 154//300 153//300 144//300
f 154//300 144//300 105//300
f 159//301 160//301 116//301
f 159//302 116//302 117//302
f 179//303 167//303 147//303
f 179//303 147//303 79//303
f 158//304 180//304 97//304
f 158//304 97//304 147//304
f 190//305 162//305 100//305
f 190//305 100//305 99//305
f 180//306 174//306 54//306
f 180//306 54//306 97//306
f 164//307 170//307 86//307
f 164//307 86//307 100//307
f 177//308 182//308 135//308
f 177//308 135//308 126//308
f 150//309 175//309 132//309
f 153//310 155//310 144//310
f 165//311 178//311 126//311
f 165//311 126//311 101//311
f 184//312 190//312 99//312
f 184//312 99//312 135//312
f 160//313 156//313 116//313
f 186//314 187//314 116//314
f 156//315 185//315 116//315
f 185//316 186//316 116//316
f 173//317 171//317 53//317
f 183//318 179//318 79//318
f 188//319 189//319 116//319
f 187//319 188//319 116//319
